# xmcd
#
# Track frame offsets:
#	182
#	11895
#	25545
#	39047
#	53845
#	64785
#	78795
#	92882
#	103542
#	114415
#	129940
#	141665
#	154340
#	165365
#	177290
#	190902
#	201985
#	215365
#	234785
#	249867
#	265225
#	285390
#	304927
#	323667
#
# Disc length: 4538 seconds
#
# Revision: 0
# Processed by: cddbd v1.4PL0 Copyright (c) Steve Scherf et al.
# Submitted via: dBpowerAMP V4.0
#
DISCID=3a11b818
DTITLE=Etta James - Something's Got A Hold On Me
DYEAR=1993
DGENRE=Blues
TTITLE0=Anything To Say You're Mine
TTITLE1=My Dearest Darling
TTITLE2=Trust In Me
TTITLE3=Sunday Kind Of Love
TTITLE4=Tough Mary
TTITLE5=I Just Want To Make Love To You
TTITLE6=Stormy Weather
TTITLE7=Girl Of My Dreams
TTITLE8=Don't Cry Baby
TTITLE9=One For My Baby
TTITLE10=In My Diary
TTITLE11=It's Too Soon To Know
TTITLE12=Dream
TTITLE13=I'll Dry My Tears
TTITLE14=Plum Nuts
TTITLE15=Don't Get Around Much Anymore
TTITLE16=Something's Got A Hold On Me
TTITLE17=Baby What Tou Want Me To Do
TTITLE18=What I Say
TTITLE19=Money
TTITLE20=Seven Day Fool
TTITLE21=Sweet Little Angel
TTITLE22=Ooh Poo Pah Doo
TTITLE23=Woke Up This Morning
EXTD=Submited by Marcos Donizetti de Almeida
EXTT0=
EXTT1=
EXTT2=
EXTT3=
EXTT4=
EXTT5=
EXTT6=
EXTT7=
EXTT8=
EXTT9=
EXTT10=
EXTT11=
EXTT12=
EXTT13=
EXTT14=
EXTT15=
EXTT16=
EXTT17=
EXTT18=
EXTT19=
EXTT20=
EXTT21=
EXTT22=
EXTT23=
PLAYORDER=
